<svg width="273" height="104" viewBox="0 0 273 104" fill="none" xmlns="http://www.w3.org/2000/svg">
<g clip-path="url(#clip0_1036_1147)">
<g clip-path="url(#clip1_1036_1147)">
<path d="M36.9031 0H11.2969C5.05778 0 0 5.0368 0 11.25V36.75C0 42.9632 5.05778 48 11.2969 48H36.9031C43.1422 48 48.2 42.9632 48.2 36.75V11.25C48.2 5.0368 43.1422 0 36.9031 0Z" fill="#133BFF"/>
<path fill-rule="evenodd" clip-rule="evenodd" d="M8.47861 33.7451C8.48219 32.3668 9.65216 30.4425 11.3147 28.6941C12.4259 27.5256 13.5544 26.4999 16.0142 24.3998C14.3128 23.4649 11.6665 22.3369 10.3378 20.8594C9.84641 20.313 8.95611 19.0742 9.12855 17.4197C9.48057 14.0471 13.6367 8.93196 19.5432 7.84541C21.5089 7.48538 23.7658 7.74527 25.6234 8.58133C31.4518 11.2048 38.5749 17.7251 39.4555 20.9061C39.7641 22.0262 39.7048 23.8119 39.1727 24.8072C38.5133 26.0407 36.2302 28.5456 33.1083 31.1323C28.2075 35.1881 21.3413 39.5411 16.21 40.2761C14.5532 40.5127 12.8602 40.2658 11.6725 39.5947C9.81386 38.5444 9.19694 37.1424 8.97994 36.7219C8.40339 35.6044 8.47484 34.1882 8.47608 33.7442L8.47861 33.7451ZM22.2688 18.2606C22.332 17.479 25.3922 18.2571 25.1988 18.8762C24.9947 19.5292 22.1959 19.1573 22.2688 18.2606Z" fill="url(#paint0_linear_1036_1147)"/>
<path fill-rule="evenodd" clip-rule="evenodd" d="M17.6687 23.1105C16.0586 24.4721 14.9878 25.3901 13.6454 26.619C10.4125 29.5777 8.2153 31.8302 9.34848 34.9072C10.6546 38.4587 13.5186 38.2787 16.8752 37.6183C25.5289 35.9087 39.7594 24.9523 39.036 20.9106C38.4489 17.6368 30.4976 11.1264 25.796 8.81159C24.3259 8.08774 22.6314 7.71402 20.9316 7.7938C14.4584 8.09971 9.40561 13.9982 9.66244 17.2001C9.91361 20.3107 17.7657 23.0212 17.6714 23.1157L17.6687 23.1105ZM16.6975 12.2502C14.7503 14.4202 15.9952 18.6173 19.2245 20.9059C23.0035 23.5834 29.1201 24.0679 30.3415 22.0035C32.6131 18.1522 30.1329 14.0774 26.4309 12.2613C22.7722 10.4661 17.9135 10.896 16.6975 12.2484V12.2502Z" fill="url(#paint1_linear_1036_1147)"/>
<path fill-rule="evenodd" clip-rule="evenodd" d="M23.34 20.8166C26.0738 21.1972 28.4303 20.1007 28.7962 17.3974C29.0769 15.3382 25.9296 13.0879 24.0375 12.5688C22.4573 12.1354 19.0266 12.6927 18.7961 15.6857C18.5557 18.7969 21.7439 20.5952 23.3377 20.8166H23.34ZM22.0013 15.6421C20.2045 18.4294 24.6099 19.2866 25.2845 18.7785C28.1923 16.5869 22.7926 14.4144 22.0013 15.6421Z" fill="url(#paint2_radial_1036_1147)"/>
<path fill-rule="evenodd" clip-rule="evenodd" d="M20.4105 8.53269C17.2326 8.86811 16.6235 9.27754 13.7434 11.459C12.7784 12.1902 11.0026 13.9691 10.5471 16.0798C10.3738 16.8834 10.5787 17.5773 11.1567 18.0639C13.0075 19.6222 16.1057 20.8864 18.6467 22.1089C19.3909 22.4668 18.8982 23.1161 17.698 24.1564C14.669 26.7825 10.5749 29.9777 10.2866 32.4131C10.1519 33.5612 10.5443 35.1206 11.9356 35.919C13.561 36.8512 16.9343 36.2428 19.1896 35.4028C22.4819 34.1751 26.8056 31.4661 30.2387 28.8047C33.8086 26.0353 37.1259 22.5163 37.2936 21.9442C37.4953 21.2398 37.4751 20.589 37.0862 19.8409C36.475 18.6662 35.6582 17.7933 34.7808 16.8159C32.4275 14.331 29.9373 12.148 26.9555 10.4751C24.8038 9.26677 22.9112 8.26894 20.409 8.53296L20.4105 8.53269ZM25.0791 14.1019C27.3754 15.2137 29.7328 18.1337 25.0586 19.8129C23.7875 20.2699 19.7543 18.6906 19.8801 16.5354C20.0599 13.3513 22.276 12.7435 25.0789 14.1009L25.0791 14.1019Z" fill="url(#paint3_radial_1036_1147)"/>
</g>
<g clip-path="url(#clip2_1036_1147)">
<mask id="mask0_1036_1147" style="mask-type:luminance" maskUnits="userSpaceOnUse" x="56" y="0" width="49" height="48">
<path d="M104.4 0H56.2002V48H104.4V0Z" fill="white"/>
</mask>
<g mask="url(#mask0_1036_1147)">
<path d="M93.1033 0H67.4971C61.258 0 56.2002 5.03679 56.2002 11.25V36.75C56.2002 42.9632 61.258 48 67.4971 48H93.1033C99.3424 48 104.4 42.9632 104.4 36.75V11.25C104.4 5.03679 99.3424 0 93.1033 0Z" fill="#133BFF"/>
<mask id="mask1_1036_1147" style="mask-type:luminance" maskUnits="userSpaceOnUse" x="63" y="7" width="34" height="34">
<path d="M96.6807 7.6875H63.7314V40.5H96.6807V7.6875Z" fill="white"/>
</mask>
<g mask="url(#mask1_1036_1147)">
<path d="M80.2061 7.6875C78.7395 11.2683 77.849 13.6139 76.2162 17.0882C77.2173 18.1451 78.4477 19.3712 80.4433 20.7613C78.2978 19.8819 76.8353 19.0016 75.7415 18.0856C73.6517 22.4282 70.3756 28.6114 63.7314 40.5C68.9522 37.4985 72.9994 35.6471 76.7712 34.9404C76.6099 34.2478 76.5237 33.495 76.5299 32.7135L76.5338 32.5492C76.6167 29.2174 78.3575 26.6556 80.4192 26.8294C82.4809 27.0034 84.0858 29.8462 84.0029 33.1781C83.9873 33.8057 83.9141 34.4087 83.7898 34.9686C87.521 35.6957 91.53 37.5388 96.6807 40.5C95.6649 38.6377 94.7551 36.9598 93.8894 35.361C92.5255 34.3084 91.1038 32.9389 88.202 31.4558C90.1964 31.9718 91.6259 32.5686 92.739 33.2342C83.9359 16.9125 83.2248 14.7422 80.2061 7.6875Z" fill="white" fill-opacity="0.92"/>
<path d="M89.4799 27.1903C82.3383 17.5373 80.683 9.75733 80.2637 7.8999C84.0732 16.6502 84.0472 16.7576 89.4799 27.1903Z" fill="white" fill-opacity="0.16568"/>
<path d="M80.266 7.82764C80.0828 8.27614 79.9044 8.71136 79.7353 9.1254C79.5477 9.58404 79.3694 10.0219 79.1923 10.4512C79.0151 10.8805 78.8394 11.2994 78.6653 11.7129C78.4911 12.1264 78.3166 12.5352 78.1385 12.9466C77.9602 13.3579 77.7809 13.7735 77.5913 14.1963C77.4019 14.619 77.204 15.0503 76.9962 15.498C76.7881 15.9458 76.5701 16.4096 76.3364 16.8959C76.304 16.9633 76.2649 17.04 76.2319 17.1082C77.23 18.1609 78.4587 19.3791 80.443 20.7612C78.303 19.8842 76.842 19.0071 75.7492 18.0936C75.6925 18.2089 75.6428 18.3119 75.5844 18.43C75.5074 18.5855 75.415 18.7622 75.335 18.9227C75.1945 19.2094 75.0478 19.504 74.8966 19.8079C74.8384 19.923 74.7874 20.0226 74.7276 20.1404C73.7726 22.0491 72.5877 24.334 71.0635 27.1738C75.2421 24.8293 79.7492 21.4468 87.9362 24.3582C87.5258 23.5838 87.1485 22.8578 86.7939 22.1751C86.4396 21.4924 86.1103 20.853 85.8045 20.2485C85.4989 19.644 85.2163 19.074 84.9518 18.5342C84.6874 17.9943 84.4423 17.4848 84.2119 16.9961C83.9812 16.5074 83.7641 16.0372 83.5602 15.5862C83.3563 15.1352 83.1618 14.7031 82.9771 14.2764C82.7922 13.8496 82.6152 13.4307 82.442 13.0147C82.269 12.5987 82.0999 12.1837 81.9312 11.765C81.871 11.6154 81.8107 11.4595 81.7503 11.3083C81.2884 10.2285 80.8141 9.10963 80.266 7.82764Z" fill="url(#paint4_linear_1036_1147)"/>
</g>
</g>
</g>
<g clip-path="url(#clip3_1036_1147)">
<path d="M36.6619 56H11.223C5.02472 56 0 61.0247 0 67.223V92.6619C0 98.8602 5.02472 103.885 11.223 103.885H36.6619C42.8602 103.885 47.8849 98.8602 47.8849 92.6619V67.223C47.8849 61.0247 42.8602 56 36.6619 56Z" fill="#133BFF"/>
<path fill-rule="evenodd" clip-rule="evenodd" d="M21.9968 82.8867L21.2656 84.6583C23.2304 90.7084 23.2304 90.7084 24.3272 95.9861C25.4241 90.7084 25.4241 90.7084 27.3889 84.6583L26.6577 82.8867L24.3272 77.2402L21.9968 82.8867Z" fill="white" fill-opacity="0.5"/>
<path fill-rule="evenodd" clip-rule="evenodd" d="M21.7482 64H26.9061L38.3271 92.3454H33.5377L24.3271 70.696L15.1166 92.3454H10.3271L21.7482 64Z" fill="url(#paint5_linear_1036_1147)"/>
<mask id="mask2_1036_1147" style="mask-type:luminance" maskUnits="userSpaceOnUse" x="21" y="77" width="7" height="20">
<path fill-rule="evenodd" clip-rule="evenodd" d="M21.2656 84.8387L24.3272 77.2402L27.3889 84.8387L24.3272 96.4421L21.2656 84.8387Z" fill="white"/>
</mask>
<g mask="url(#mask2_1036_1147)">
<path fill-rule="evenodd" clip-rule="evenodd" d="M24.3269 88.8087L33.4673 66.0273L15.1865 66.121L24.3269 88.8087Z" fill="white"/>
</g>
</g>
<g clip-path="url(#clip4_1036_1147)">
<g clip-path="url(#clip5_1036_1147)">
<path d="M261.55 56H236.05C229.837 56 224.8 61.0368 224.8 67.25V92.75C224.8 98.9632 229.837 104 236.05 104H261.55C267.763 104 272.8 98.9632 272.8 92.75V67.25C272.8 61.0368 267.763 56 261.55 56Z" fill="#133BFF"/>
<path d="M231.121 74.789C231.121 74.789 230.233 74.1491 231.299 73.2947L233.781 71.0754C233.781 71.0754 234.491 70.3282 235.242 70.9792L258.144 88.319V96.6339C258.144 96.6339 258.133 97.9396 256.458 97.7953L231.121 74.789Z" fill="white" fill-opacity="0.3"/>
<path d="M237.024 80.1484L231.121 85.5152C231.121 85.5152 230.515 85.9666 231.121 86.773L233.862 89.2658C233.862 89.2658 234.513 89.965 235.475 89.1696L241.733 84.4242L237.024 80.1484Z" fill="white" fill-opacity="0.5"/>
<path d="M247.389 80.1929L258.215 71.926L258.145 63.6555C258.145 63.6555 257.683 61.8505 256.14 62.79L241.733 75.9021L247.389 80.1929Z" fill="white" fill-opacity="0.5"/>
<path d="M256.458 97.8065C257.087 98.45 257.849 98.2392 257.849 98.2392L266.285 94.0818C267.365 93.3456 267.214 92.4321 267.214 92.4321V67.6059C267.214 66.5147 266.097 66.1375 266.097 66.1375L258.784 62.6125C257.186 61.625 256.14 62.7901 256.14 62.7901C256.14 62.7901 257.486 61.821 258.144 63.6556V96.4821C258.144 96.7079 258.096 96.9297 258 97.1296C257.808 97.5179 257.39 97.8803 256.388 97.7286L256.458 97.8065Z" fill="white" fill-opacity="0.75"/>
</g>
</g>
<g clip-path="url(#clip6_1036_1147)">
<path d="M205.503 0H179.896C173.657 0 168.6 5.0368 168.6 11.25V36.75C168.6 42.9632 173.657 48 179.896 48H205.503C211.742 48 216.8 42.9632 216.8 36.75V11.25C216.8 5.0368 211.742 0 205.503 0Z" fill="#133BFF"/>
<path d="M173.684 18.1875V29.625H178.101V27.8653H175.451V19.9472H178.101V18.1875H173.684ZM207.256 18.1875V19.9472H209.906V27.8653H207.256V29.625H211.673V18.1875H207.256Z" fill="white"/>
<path d="M193.562 23.9063L201.513 19.5073V28.3054L193.562 23.9063Z" fill="#C1FF44"/>
<path d="M186.936 27.8659C189.131 27.8659 190.911 26.0934 190.911 23.9068C190.911 21.7202 189.131 19.9478 186.936 19.9478C184.74 19.9478 182.96 21.7202 182.96 23.9068C182.96 26.0934 184.74 27.8659 186.936 27.8659Z" fill="#C1FF44"/>
</g>
<g clip-path="url(#clip7_1036_1147)">
<path d="M261.703 0H236.097C229.858 0 224.8 5.0368 224.8 11.25V36.75C224.8 42.9632 229.858 48 236.097 48H261.703C267.942 48 273 42.9632 273 36.75V11.25C273 5.0368 267.942 0 261.703 0Z" fill="#133BFF"/>
<path d="M263.644 34.1527L264.853 38.0393H262.397L263.644 34.1527ZM262.349 32.6398L259.562 40.9341H261.53L261.97 39.4686H265.268L265.685 40.9341H267.822L265.014 32.6385L262.349 32.6398ZM256.754 40.9371H258.75V32.6372L256.753 32.6366L256.754 40.9371ZM242.893 32.6366L241.227 39.2151L239.632 32.6372L237.478 32.6366L239.757 40.9371H242.633L244.93 32.6366H242.893ZM250.964 34.4439H251.822C253.066 34.4439 253.872 35.1007 253.872 36.8044C253.872 38.5087 253.066 39.165 251.822 39.165H250.964V34.4439ZM248.984 32.6366V40.9371H252.22C253.945 40.9371 254.508 40.6005 255.117 39.8449C255.547 39.3146 255.825 38.1504 255.825 36.8784C255.825 35.7112 255.59 34.671 255.18 34.0226C254.44 32.8633 253.374 32.6366 251.785 32.6366H248.984ZM230.071 32.625V40.9371H232.085V34.626L233.645 34.6262C234.161 34.6262 234.53 34.7775 234.778 35.0897C235.094 35.4846 235.223 36.1217 235.223 37.2872V40.9371H237.174V36.3448C237.174 33.0669 235.395 32.625 233.655 32.625H230.071ZM245.77 32.6366L245.771 40.9371H247.767V32.6366H245.77Z" fill="white"/>
<path d="M234.308 16.0662C234.308 16.0662 236.876 11.6157 242.003 11.1553V9.5406C236.324 10.0763 231.406 15.7264 231.406 15.7264C231.406 15.7264 234.192 25.185 242.003 26.0511V24.3347C236.271 23.4876 234.308 16.0662 234.308 16.0662ZM242.003 20.9214V22.4932C237.671 21.5861 236.468 16.2958 236.468 16.2958C236.468 16.2958 238.548 13.5887 242.003 13.1498V14.8744C242 14.8744 241.999 14.8735 241.996 14.8735C240.183 14.6179 238.767 16.6077 238.767 16.6077C238.767 16.6077 239.561 19.9575 242.003 20.9214ZM242.003 6.5625V9.5406C242.17 9.52556 242.336 9.51285 242.504 9.50614C248.961 9.25056 253.167 15.7264 253.167 15.7264C253.167 15.7264 248.336 22.6279 243.302 22.6279C242.84 22.6279 242.409 22.5776 242.003 22.4932V24.3347C242.35 24.3866 242.709 24.4168 243.085 24.4168C247.769 24.4168 251.157 21.6066 254.437 18.2808C254.98 18.7926 257.207 20.037 257.665 20.5821C254.546 23.6494 247.277 26.1216 243.157 26.1216C242.759 26.1216 242.378 26.0934 242.003 26.0511V28.6387H259.807V6.5625H242.003ZM242.003 13.1498V11.1553C242.168 11.1417 242.334 11.1314 242.504 11.1251C247.147 10.9538 250.193 15.8118 250.193 15.8118C250.193 15.8118 246.903 21.1792 243.375 21.1792C242.868 21.1792 242.413 21.0832 242.003 20.9214V14.8744C243.811 15.131 244.174 16.0688 245.261 18.1967L247.677 15.8029C247.677 15.8029 245.913 13.085 242.939 13.085C242.616 13.0849 242.307 13.1116 242.003 13.1498Z" fill="#C1FF44"/>
</g>
<g clip-path="url(#clip8_1036_1147)">
<path d="M93.1033 56H67.4971C61.258 56 56.2002 61.0368 56.2002 67.25V92.75C56.2002 98.9632 61.258 104 67.4971 104H93.1033C99.3424 104 104.4 98.9632 104.4 92.75V67.25C104.4 61.0368 99.3424 56 93.1033 56Z" fill="#133BFF"/>
<path d="M95.214 74.4241C94.5102 72.7355 93.0827 70.9123 91.9647 70.336C92.7619 71.8753 93.3152 73.5285 93.605 75.2368L93.608 75.2638C91.7766 70.7131 88.6722 68.8753 86.1355 64.8789C86.0073 64.6767 85.8789 64.4742 85.7538 64.2604C85.6825 64.1383 85.6252 64.0283 85.5755 63.927C85.4703 63.7239 85.3891 63.5092 85.334 63.2874C85.334 63.2771 85.3302 63.2672 85.3234 63.2595C85.3167 63.2518 85.3072 63.2469 85.2971 63.2457C85.2871 63.243 85.2766 63.243 85.2666 63.2457C85.2645 63.2457 85.2611 63.2494 85.2587 63.2503C85.2562 63.2511 85.2508 63.2549 85.247 63.2565L85.2532 63.2457C81.1848 65.6211 79.8036 70.0176 79.6782 72.2179C78.0528 72.3291 76.4989 72.9261 75.2189 73.9311C75.0855 73.8184 74.9459 73.7129 74.801 73.6152C74.432 72.3271 74.4162 70.9638 74.7554 69.6675C73.2613 70.3892 71.9337 71.4124 70.8566 72.6722H70.8491C70.2072 71.8608 70.2523 69.1854 70.2891 68.6265C70.0992 68.7027 69.9179 68.7986 69.7483 68.9128C69.1816 69.3161 68.6518 69.7687 68.1652 70.2651C67.6106 70.8258 67.1042 71.4317 66.6511 72.0767V72.0792V72.0762C65.6098 73.548 64.8712 75.2107 64.4779 76.9687L64.4561 77.0754C64.4256 77.2175 64.3157 77.9293 64.2969 78.0838C64.2969 78.096 64.2944 78.1072 64.2932 78.1192C64.1514 78.8542 64.0635 79.5982 64.0303 80.346V80.4292C64.0374 84.471 65.5639 88.3631 68.3083 91.3374C71.0527 94.3117 74.8156 96.152 78.8543 96.495C82.8929 96.8379 86.9137 95.6587 90.1231 93.1901C93.3323 90.7215 95.497 87.1428 96.1895 83.1605C96.2166 82.9522 96.2388 82.7458 96.2629 82.5354C96.5966 79.7857 96.2355 76.9967 95.2123 74.4216L95.214 74.4241ZM76.5454 87.0678C76.6211 87.104 76.6921 87.1432 76.7698 87.1777L76.7811 87.1848C76.7026 87.1473 76.6239 87.1083 76.5454 87.0678ZM93.6084 75.2685V75.2531L93.6114 75.2702L93.6084 75.2685Z" fill="url(#paint6_linear_1036_1147)"/>
<path d="M95.2136 74.4241C94.5099 72.7355 93.0821 70.9123 91.9643 70.3359C92.7615 71.8753 93.3148 73.5285 93.6046 75.2367V75.2521L93.6076 75.2692C94.8563 78.8318 94.6755 82.738 93.1036 86.171C91.2471 90.1428 86.7553 94.2138 79.7217 94.0139C72.1238 93.7992 65.4286 88.1753 64.179 80.8118C63.9513 79.6503 64.179 79.0615 64.2936 78.1177C64.1374 78.8508 64.0502 79.5968 64.0332 80.3463V80.4295C64.0404 84.4713 65.5668 88.3634 68.3112 91.3377C71.0556 94.312 74.8185 96.1523 78.8571 96.4953C82.8957 96.8384 86.9167 95.6592 90.1259 93.1904C93.3354 90.7218 95.4998 87.1432 96.1923 83.1608C96.2196 82.9525 96.2417 82.7463 96.266 82.5357C96.5996 79.7862 96.2385 76.997 95.2153 74.422L95.2136 74.4241Z" fill="url(#paint7_radial_1036_1147)"/>
<path d="M95.2136 74.4241C94.5099 72.7355 93.0821 70.9123 91.9643 70.3359C92.7615 71.8753 93.3148 73.5285 93.6046 75.2367V75.2521L93.6076 75.2692C94.8563 78.8318 94.6755 82.738 93.1036 86.171C91.2471 90.1428 86.7553 94.2138 79.7217 94.0139C72.1238 93.7992 65.4286 88.1753 64.179 80.8118C63.9513 79.6503 64.179 79.0615 64.2936 78.1177C64.1374 78.8508 64.0502 79.5968 64.0332 80.3463V80.4295C64.0404 84.4713 65.5668 88.3634 68.3112 91.3377C71.0556 94.312 74.8185 96.1523 78.8571 96.4953C82.8957 96.8384 86.9167 95.6592 90.1259 93.1904C93.3354 90.7218 95.4998 87.1432 96.1923 83.1608C96.2196 82.9525 96.2417 82.7463 96.266 82.5357C96.5996 79.7862 96.2385 76.997 95.2153 74.422L95.2136 74.4241Z" fill="url(#paint8_radial_1036_1147)"/>
<path d="M87.3403 76.3203C87.3755 76.3448 87.4081 76.3694 87.441 76.394C87.0342 75.6745 86.5277 75.0158 85.9365 74.4374C80.9005 69.4158 84.6172 63.5524 85.2436 63.2523L85.2498 63.2432C81.1814 65.6185 79.8002 70.0151 79.6748 72.2154C79.8637 72.2025 80.051 72.1867 80.244 72.1867C81.6873 72.1894 83.1043 72.5733 84.3508 73.2992C85.5972 74.0251 86.6288 75.0672 87.3403 76.3193V76.3203Z" fill="url(#paint9_radial_1036_1147)"/>
<path d="M80.2516 77.3243C80.2249 77.7261 78.8015 79.1117 78.3039 79.1117C73.6983 79.1117 72.9502 81.8901 72.9502 81.8901C73.1541 84.2295 74.789 86.1574 76.7654 87.1742C76.8556 87.2209 76.9471 87.2629 77.0388 87.3041C77.1973 87.3743 77.3559 87.439 77.5144 87.4984C78.1926 87.7376 78.903 87.8743 79.6218 87.9038C87.6963 88.2814 89.2592 78.2773 83.433 75.3728C84.8073 75.1945 86.1991 75.5314 87.3384 76.3183C86.6268 75.066 85.5954 74.024 84.349 73.2981C83.1026 72.5722 81.6856 72.1883 80.242 72.1855C80.0498 72.1855 79.8617 72.2014 79.6729 72.2143C78.0476 72.3254 76.4936 72.9224 75.2136 73.9275C75.4606 74.1358 75.7395 74.4142 76.3265 74.9914C77.4257 76.0712 80.2447 77.1896 80.2509 77.3209L80.2516 77.3243Z" fill="url(#paint10_radial_1036_1147)"/>
<path d="M80.2516 77.3243C80.2249 77.7261 78.8015 79.1117 78.3039 79.1117C73.6983 79.1117 72.9502 81.8901 72.9502 81.8901C73.1541 84.2295 74.789 86.1574 76.7654 87.1742C76.8556 87.2209 76.9471 87.2629 77.0388 87.3041C77.1973 87.3743 77.3559 87.439 77.5144 87.4984C78.1926 87.7376 78.903 87.8743 79.6218 87.9038C87.6963 88.2814 89.2592 78.2773 83.433 75.3728C84.8073 75.1945 86.1991 75.5314 87.3384 76.3183C86.6268 75.066 85.5954 74.024 84.349 73.2981C83.1026 72.5722 81.6856 72.1883 80.242 72.1855C80.0498 72.1855 79.8617 72.2014 79.6729 72.2143C78.0476 72.3254 76.4936 72.9224 75.2136 73.9275C75.4606 74.1358 75.7395 74.4142 76.3265 74.9914C77.4257 76.0712 80.2447 77.1896 80.2509 77.3209L80.2516 77.3243Z" fill="url(#paint11_radial_1036_1147)"/>
<path d="M74.4596 73.3944C74.5909 73.4777 74.6991 73.5502 74.794 73.6157C74.4249 72.3275 74.4092 70.9642 74.7484 69.668C73.2543 70.3897 71.9267 71.4128 70.8496 72.6726C70.9286 72.6705 73.2782 72.6284 74.4596 73.3944Z" fill="url(#paint12_radial_1036_1147)"/>
<path d="M64.1762 80.8126C65.4262 88.1763 72.121 93.8022 79.7188 94.0147C86.7524 94.2131 91.2452 90.1417 93.1007 86.1717C94.6728 82.7388 94.8534 78.8328 93.6047 75.2701V75.2548C93.6047 75.2426 93.6022 75.2354 93.6047 75.2392L93.6077 75.2664C94.1823 79.0074 92.2741 82.6301 89.2904 85.0846L89.2814 85.1054C83.468 89.8271 77.9054 87.9534 76.7812 87.1891C76.7027 87.1516 76.624 87.1126 76.5455 87.0719C73.1566 85.4568 71.7561 82.3796 72.057 79.7375C71.2526 79.7493 70.4619 79.5283 69.7809 79.1011C69.0999 78.674 68.5577 78.059 68.2201 77.3309C69.1097 76.7874 70.1241 76.4802 71.1666 76.4384C72.2091 76.3968 73.245 76.6218 74.1755 77.0924C76.0934 77.9606 78.2758 78.0461 80.2563 77.3309C80.2499 77.1995 77.4312 76.0807 76.332 75.0012C75.7447 74.4241 75.4661 74.1462 75.219 73.9374C75.0855 73.8247 74.946 73.7192 74.8011 73.6215C74.705 73.5561 74.5967 73.4853 74.4668 73.4002C73.2853 72.6343 70.9357 72.6764 70.858 72.6785H70.8505C70.2085 71.8671 70.2537 69.1917 70.2905 68.6328C70.1006 68.7089 69.9193 68.8049 69.7497 68.9191C69.183 69.3224 68.6532 69.7749 68.1666 70.2714C67.61 70.8305 67.1015 71.435 66.6462 72.0788C65.6049 73.5505 64.8663 75.2129 64.473 76.9708C64.465 77.0038 63.8895 79.5125 64.1733 80.8136L64.1762 80.8126Z" fill="url(#paint13_radial_1036_1147)"/>
<path d="M85.9359 74.4362C86.5273 75.0153 87.0338 75.6747 87.4405 76.3949C87.5296 76.462 87.6126 76.5286 87.6832 76.5933C91.3556 79.9689 89.4314 84.7404 89.2881 85.0779C92.2712 82.627 94.1778 79.0019 93.6052 75.2598C91.773 70.7048 88.6655 68.867 86.1327 64.8706C86.0045 64.6684 85.8763 64.4659 85.7512 64.2521C85.6797 64.13 85.6225 64.02 85.5727 63.9187C85.4675 63.7156 85.3865 63.5009 85.3312 63.2791C85.3314 63.2688 85.3276 63.2589 85.3208 63.2512C85.314 63.2436 85.3046 63.2386 85.2945 63.2374C85.2845 63.2347 85.2739 63.2347 85.264 63.2374C85.2619 63.2374 85.2585 63.2411 85.2561 63.242C85.2534 63.2428 85.248 63.2466 85.2442 63.2482C84.6178 63.5445 80.902 69.4117 85.938 74.4292L85.9359 74.4362Z" fill="url(#paint14_radial_1036_1147)"/>
<path d="M87.6831 76.595C87.6125 76.5303 87.5293 76.4638 87.4405 76.3966C87.4073 76.3721 87.3747 76.3473 87.3397 76.3228C86.2002 75.5358 84.8085 75.1989 83.4342 75.3772C89.26 78.2819 87.6969 88.2834 79.6232 87.9084C78.9042 87.8789 78.1938 87.7423 77.5156 87.503C77.3571 87.4438 77.1985 87.3791 77.04 87.3088C76.9485 87.2671 76.857 87.2253 76.7666 87.1786L76.7779 87.1858C77.9038 87.9521 83.4647 89.8244 89.2781 85.1021L89.2871 85.0813C89.4323 84.7438 91.3563 79.9721 87.6824 76.5967L87.6831 76.595Z" fill="url(#paint15_radial_1036_1147)"/>
<path d="M72.9514 81.8873C72.9514 81.8873 73.6991 79.1089 78.3051 79.1089C78.8027 79.1089 80.2274 77.7233 80.253 77.3217C78.2725 78.037 76.0901 77.9513 74.1722 77.0832C73.2417 76.6128 72.2059 76.3876 71.1634 76.4292C70.1209 76.471 69.1065 76.7781 68.2168 77.3217C68.5544 78.0498 69.0966 78.6648 69.7776 79.0919C70.4586 79.519 71.2493 79.7401 72.0537 79.7283C71.7537 82.3692 73.1537 85.4459 76.5422 87.0627C76.6179 87.0991 76.6889 87.1383 76.7666 87.1728C74.7886 86.1539 73.1554 84.2269 72.9514 81.8886V81.8873Z" fill="url(#paint16_radial_1036_1147)"/>
<path d="M95.2142 74.4241C94.5104 72.7355 93.0828 70.9123 91.9648 70.336C92.762 71.8753 93.3153 73.5285 93.6051 75.2368L93.6081 75.2638C91.7767 70.7131 88.6723 68.8753 86.1356 64.8789C86.0074 64.6767 85.879 64.4742 85.754 64.2604C85.6826 64.1383 85.6254 64.0283 85.5757 63.927C85.4704 63.7239 85.3893 63.5092 85.3341 63.2874C85.3341 63.2771 85.3303 63.2672 85.3236 63.2595C85.3168 63.2518 85.3076 63.2469 85.2972 63.2457C85.2872 63.243 85.2767 63.243 85.2667 63.2457C85.2646 63.2457 85.2612 63.2494 85.2588 63.2503C85.2563 63.2511 85.2509 63.2549 85.2471 63.2565L85.2533 63.2457C81.185 65.6211 79.8037 70.0176 79.6783 72.2179C79.8672 72.205 80.0545 72.1892 80.2475 72.1892C81.6909 72.192 83.1079 72.5758 84.3543 73.3017C85.6007 74.0276 86.6323 75.0697 87.3438 76.3218C86.2045 75.5351 84.8128 75.198 83.4383 75.3763C89.2643 78.281 87.7012 88.2825 79.6273 87.9075C78.9084 87.878 78.1981 87.7413 77.5197 87.5021C77.3611 87.4428 77.2026 87.3782 77.0441 87.3078C76.9526 87.2662 76.8611 87.2244 76.7709 87.1777L76.7822 87.1848C76.7035 87.1473 76.625 87.1083 76.5465 87.0678C76.622 87.104 76.6931 87.1432 76.7709 87.1777C74.7928 86.1585 73.1595 84.2315 72.9556 81.8936C72.9556 81.8936 73.7033 79.1152 78.3091 79.1152C78.807 79.1152 80.2317 77.7296 80.2571 77.328C80.2509 77.1967 77.4319 76.0777 76.3328 74.9985C75.7457 74.4212 75.4669 74.1432 75.2198 73.9345C75.0863 73.8217 74.9469 73.7163 74.802 73.6186C74.4329 72.3304 74.4172 70.9671 74.7564 69.6709C73.2623 70.3926 71.9347 71.4157 70.8576 72.6755H70.8501C70.2082 71.8641 70.2533 69.1887 70.2901 68.6299C70.1002 68.706 69.9189 68.802 69.7493 68.9162C69.1826 69.3195 68.6528 69.772 68.1662 70.2685C67.6116 70.8291 67.1051 71.4351 66.6521 72.08C65.6108 73.5517 64.8722 75.2141 64.4789 76.9721L64.4571 77.0788C64.4266 77.2207 64.2899 77.9426 64.2703 78.0977C64.1453 78.8426 64.0655 79.5947 64.0312 80.3492V80.4326C64.0384 84.4743 65.5649 88.3665 68.3093 91.3408C71.0537 94.3151 74.8166 96.1554 78.8552 96.4983C82.8938 96.8413 86.9147 95.6621 90.124 93.1935C93.3334 90.7248 95.4979 87.146 96.1904 83.1639C96.2177 82.9554 96.2397 82.7492 96.264 82.5388C96.5977 79.7891 96.2365 76.9998 95.2134 74.425L95.2142 74.4241Z" fill="url(#paint17_linear_1036_1147)"/>
</g>
<g clip-path="url(#clip9_1036_1147)">
<path d="M149.304 56H123.697C117.458 56 112.4 61.0368 112.4 67.25V92.75C112.4 98.9632 117.458 104 123.697 104H149.304C155.543 104 160.6 98.9632 160.6 92.75V67.25C160.6 61.0368 155.543 56 149.304 56Z" fill="#133BFF"/>
<mask id="mask3_1036_1147" style="mask-type:luminance" maskUnits="userSpaceOnUse" x="119" y="63" width="34" height="34">
<path d="M152.881 63.6875V96.5H119.932V63.6875H152.881Z" fill="white"/>
<path d="M152.881 63.6875V96.5H119.932V63.6875H152.881Z" stroke="white"/>
</mask>
<g mask="url(#mask3_1036_1147)">
<path d="M150.672 71.8906C152.075 74.3045 152.881 77.1045 152.881 80.0938C152.881 89.1545 145.505 96.5 136.406 96.5L143.54 84.1953L136.406 80.0938V71.8906H150.672Z" fill="url(#paint18_linear_1036_1147)"/>
<path d="M150.672 71.8906C152.075 74.3045 152.881 77.1045 152.881 80.0938C152.881 89.1545 145.505 96.5 136.406 96.5L143.54 84.1953L136.406 80.0938V71.8906H150.672Z" stroke="white"/>
<path d="M136.406 63.6875C142.503 63.6876 147.822 66.9883 150.671 71.8906H136.406V80.0938L129.272 84.1953L122.14 71.8926C124.988 66.9889 130.309 63.6875 136.406 63.6875Z" fill="url(#paint19_linear_1036_1147)"/>
<path d="M136.406 63.6875C142.503 63.6876 147.822 66.9883 150.671 71.8906H136.406V80.0938L129.272 84.1953L122.14 71.8926C124.988 66.9889 130.309 63.6875 136.406 63.6875Z" stroke="white"/>
<path d="M119.932 80.0939C119.932 89.1546 127.307 96.4999 136.406 96.4999L143.54 84.1953L136.406 80.0939L129.272 84.1953L122.14 71.8926C120.738 74.3059 119.932 77.1049 119.932 80.0935" fill="url(#paint20_linear_1036_1147)"/>
<path d="M136.406 71.8906C140.956 71.8906 144.644 75.5632 144.644 80.0938C144.644 84.6241 140.956 88.2969 136.406 88.2969C131.857 88.2969 128.169 84.6241 128.169 80.0938C128.169 75.5632 131.857 71.8906 136.406 71.8906Z" fill="white"/>
<path d="M136.406 71.8906C140.956 71.8906 144.644 75.5632 144.644 80.0938C144.644 84.6241 140.956 88.2969 136.406 88.2969C131.857 88.2969 128.169 84.6241 128.169 80.0938C128.169 75.5632 131.857 71.8906 136.406 71.8906Z" stroke="white"/>
<path d="M136.406 73.4287C140.103 73.4287 143.1 76.4128 143.1 80.0938C143.1 83.7747 140.103 86.7588 136.406 86.7588C132.71 86.7585 129.714 83.7746 129.714 80.0938C129.714 76.413 132.71 73.429 136.406 73.4287Z" fill="url(#paint21_linear_1036_1147)"/>
<path d="M136.406 73.4287C140.103 73.4287 143.1 76.4128 143.1 80.0938C143.1 83.7747 140.103 86.7588 136.406 86.7588C132.71 86.7585 129.714 83.7746 129.714 80.0938C129.714 76.413 132.71 73.429 136.406 73.4287Z" stroke="white"/>
</g>
</g>
<g clip-path="url(#clip10_1036_1147)">
<path d="M205.503 56H179.896C173.657 56 168.6 61.0368 168.6 67.25V92.75C168.6 98.9632 173.657 104 179.896 104H205.503C211.742 104 216.8 98.9632 216.8 92.75V67.25C216.8 61.0368 211.742 56 205.503 56Z" fill="#133BFF"/>
<path fill-rule="evenodd" clip-rule="evenodd" d="M177.261 69.3137L185.281 61.25V98.7419L177.261 90.7719V69.3137Z" fill="url(#paint22_linear_1036_1147)"/>
<path fill-rule="evenodd" clip-rule="evenodd" d="M208.249 69.3896L200.119 61.2544L200.284 98.7423L208.304 90.772L208.249 69.3896Z" fill="url(#paint23_linear_1036_1147)"/>
<path fill-rule="evenodd" clip-rule="evenodd" d="M185.275 61.2563L206.126 92.9399L200.291 98.7501L179.43 67.1366L185.275 61.2563Z" fill="url(#paint24_linear_1036_1147)"/>
<path fill-rule="evenodd" clip-rule="evenodd" d="M185.282 75.9529L185.271 77.2009L178.833 67.736L179.429 67.1313L185.282 75.9529Z" fill="black" fill-opacity="0.13"/>
</g>
<g clip-path="url(#clip11_1036_1147)">
<path d="M149.304 0H123.697C117.458 0 112.4 5.03679 112.4 11.25V36.75C112.4 42.9632 117.458 48 123.697 48H149.304C155.543 48 160.6 42.9632 160.6 36.75V11.25C160.6 5.03679 155.543 0 149.304 0Z" fill="#133BFF"/>
<path d="M135.21 18.7148L144.455 27.9212C145.507 28.9686 145.507 30.6668 144.455 31.7142C143.403 32.7615 141.698 32.7615 140.646 31.7142L131.401 22.5077L135.21 18.7148Z" fill="white"/>
<path d="M142.516 15.4389C143.568 14.3916 143.568 12.6934 142.516 11.646C141.464 10.5986 139.759 10.5986 138.707 11.646C137.655 12.6934 137.655 14.3916 138.707 15.4389C139.759 16.4863 141.464 16.4863 142.516 15.4389Z" fill="white"/>
<path d="M135.314 22.6113C136.365 21.5639 136.365 19.8658 135.314 18.8184C134.262 17.771 132.557 17.771 131.505 18.8184C130.453 19.8658 130.453 21.5639 131.505 22.6113C132.557 23.6587 134.262 23.6587 135.314 22.6113Z" fill="white"/>
<path d="M127.766 30.1279C128.818 29.0805 128.818 27.3824 127.766 26.335C126.714 25.2876 125.009 25.2876 123.957 26.335C122.905 27.3824 122.905 29.0805 123.957 30.1279C125.009 31.1753 126.714 31.1753 127.766 30.1279Z" fill="white"/>
<path fill-rule="evenodd" clip-rule="evenodd" d="M138.603 15.3354L127.661 26.2314L123.853 30.0243L132.578 38.7136C137.703 43.8172 146.012 43.8172 151.137 38.7136C156.262 33.6099 156.262 25.3353 151.137 20.2318L142.411 11.5425L138.603 15.3354ZM138.603 15.3354L127.661 26.2314L136.802 35.3343C139.824 38.3433 144.722 38.3433 147.744 35.3343C150.765 32.3255 150.765 27.4472 147.744 24.4383L138.603 15.3354Z" fill="white"/>
<path d="M136.768 9.43943C137.82 8.39204 137.82 6.69389 136.768 5.64651C135.716 4.59912 134.011 4.59912 132.959 5.64651C131.907 6.69389 131.907 8.39204 132.959 9.43943C134.011 10.4868 135.716 10.4868 136.768 9.43943Z" fill="white"/>
<path d="M129.566 16.6113C130.617 15.5639 130.617 13.8658 129.566 12.8184C128.514 11.771 126.809 11.771 125.757 12.8184C124.705 13.8658 124.705 15.5639 125.757 16.6113C126.809 17.6587 128.514 17.6587 129.566 16.6113Z" fill="white"/>
<path d="M122.018 24.1284C123.07 23.081 123.07 21.3829 122.018 20.3355C120.966 19.2881 119.261 19.2881 118.209 20.3355C117.157 21.3829 117.157 23.081 118.209 24.1284C119.261 25.1758 120.966 25.1758 122.018 24.1284Z" fill="white"/>
</g>
</g>
<defs>
<linearGradient id="paint0_linear_1036_1147" x1="3.60011" y1="-67.0206" x2="24.1523" y2="40.3961" gradientUnits="userSpaceOnUse">
<stop stop-color="white"/>
<stop offset="0.3421" stop-color="white"/>
<stop offset="0.52" stop-color="#BEBDF3"/>
<stop offset="0.7541" stop-color="#8F82F9"/>
<stop offset="0.8711" stop-color="#9F99C7"/>
<stop offset="1" stop-color="#524C76"/>
</linearGradient>
<linearGradient id="paint1_linear_1036_1147" x1="28.7684" y1="31.8283" x2="22.5659" y2="4.0613" gradientUnits="userSpaceOnUse">
<stop stop-color="white"/>
<stop offset="0.3421" stop-color="white"/>
<stop offset="0.52" stop-color="#BEBDF3"/>
<stop offset="0.7541" stop-color="#8F82F9"/>
<stop offset="0.8711" stop-color="#9F99C7"/>
<stop offset="1" stop-color="#524C76"/>
</linearGradient>
<radialGradient id="paint2_radial_1036_1147" cx="0" cy="0" r="1" gradientUnits="userSpaceOnUse" gradientTransform="translate(21.5161 14.9562) scale(5.50453 4.22621)">
<stop stop-color="white"/>
<stop offset="0.3421" stop-color="white"/>
<stop offset="0.52" stop-color="#BEBDF3"/>
<stop offset="0.7541" stop-color="#8F82F9"/>
<stop offset="0.8711" stop-color="#9F99C7"/>
<stop offset="1" stop-color="#524C76"/>
</radialGradient>
<radialGradient id="paint3_radial_1036_1147" cx="0" cy="0" r="1" gradientTransform="matrix(-0.754565 47.9457 -40.8377 -0.637377 8.97491 16.3123)" gradientUnits="userSpaceOnUse">
<stop stop-color="white"/>
<stop offset="0.3421" stop-color="white"/>
<stop offset="0.52" stop-color="#BEBDF3"/>
<stop offset="0.7541" stop-color="#8F82F9"/>
<stop offset="0.8711" stop-color="#9F99C7"/>
<stop offset="1" stop-color="#524C76"/>
</radialGradient>
<linearGradient id="paint4_linear_1036_1147" x1="80.2817" y1="11.5745" x2="75.8376" y2="25.0927" gradientUnits="userSpaceOnUse">
<stop stop-color="white" stop-opacity="0"/>
<stop offset="1" stop-color="white" stop-opacity="0.27451"/>
</linearGradient>
<linearGradient id="paint5_linear_1036_1147" x1="24.3732" y1="64" x2="24.3306" y2="94.6484" gradientUnits="userSpaceOnUse">
<stop stop-color="white" stop-opacity="0.5"/>
<stop offset="1" stop-color="white"/>
</linearGradient>
<linearGradient id="paint6_linear_1036_1147" x1="93.0701" y1="68.4048" x2="66.2537" y2="94.3521" gradientUnits="userSpaceOnUse">
<stop offset="0.048" stop-color="#FFF44F"/>
<stop offset="0.111" stop-color="#FFE847"/>
<stop offset="0.225" stop-color="#FFC830"/>
<stop offset="0.368" stop-color="#FF980E"/>
<stop offset="0.401" stop-color="#FF8B16"/>
<stop offset="0.462" stop-color="#FF672A"/>
<stop offset="0.534" stop-color="#FF3647"/>
<stop offset="0.705" stop-color="#E31587"/>
</linearGradient>
<radialGradient id="paint7_radial_1036_1147" cx="0" cy="0" r="1" gradientUnits="userSpaceOnUse" gradientTransform="translate(92.0291 66.9937) scale(33.7682 33.672)">
<stop offset="0.129" stop-color="#FFBD4F"/>
<stop offset="0.186" stop-color="#FFAC31"/>
<stop offset="0.247" stop-color="#FF9D17"/>
<stop offset="0.283" stop-color="#FF980E"/>
<stop offset="0.403" stop-color="#FF563B"/>
<stop offset="0.467" stop-color="#FF3750"/>
<stop offset="0.71" stop-color="#F5156C"/>
<stop offset="0.782" stop-color="#EB0878"/>
<stop offset="0.86" stop-color="#E50080"/>
</radialGradient>
<radialGradient id="paint8_radial_1036_1147" cx="0" cy="0" r="1" gradientUnits="userSpaceOnUse" gradientTransform="translate(79.4914 80.7458) scale(33.7682 33.672)">
<stop offset="0.3" stop-color="#960E18"/>
<stop offset="0.351" stop-color="#B11927" stop-opacity="0.74"/>
<stop offset="0.435" stop-color="#DB293D" stop-opacity="0.343"/>
<stop offset="0.497" stop-color="#F5334B" stop-opacity="0.094"/>
<stop offset="0.53" stop-color="#FF3750" stop-opacity="0"/>
</radialGradient>
<radialGradient id="paint9_radial_1036_1147" cx="0" cy="0" r="1" gradientUnits="userSpaceOnUse" gradientTransform="translate(83.6709 59.4926) scale(24.4611 24.3913)">
<stop offset="0.132" stop-color="#FFF44F"/>
<stop offset="0.252" stop-color="#FFDC3E"/>
<stop offset="0.506" stop-color="#FF9D12"/>
<stop offset="0.526" stop-color="#FF980E"/>
</radialGradient>
<radialGradient id="paint10_radial_1036_1147" cx="0" cy="0" r="1" gradientUnits="userSpaceOnUse" gradientTransform="translate(75.7299 89.497) scale(16.0775 16.0317)">
<stop offset="0.353" stop-color="#3A8EE6"/>
<stop offset="0.472" stop-color="#5C79F0"/>
<stop offset="0.669" stop-color="#9059FF"/>
<stop offset="1" stop-color="#C139E6"/>
</radialGradient>
<radialGradient id="paint11_radial_1036_1147" cx="0" cy="0" r="1" gradientTransform="matrix(8.28691 -1.99781 2.35141 9.67287 81.1243 77.8553)" gradientUnits="userSpaceOnUse">
<stop offset="0.206" stop-color="#9059FF" stop-opacity="0"/>
<stop offset="0.278" stop-color="#8C4FF3" stop-opacity="0.064"/>
<stop offset="0.747" stop-color="#7716A8" stop-opacity="0.45"/>
<stop offset="0.975" stop-color="#6E008B" stop-opacity="0.6"/>
</radialGradient>
<radialGradient id="paint12_radial_1036_1147" cx="0" cy="0" r="1" gradientUnits="userSpaceOnUse" gradientTransform="translate(79.0735 65.7432) scale(11.5681 11.5351)">
<stop stop-color="#FFE226"/>
<stop offset="0.121" stop-color="#FFDB27"/>
<stop offset="0.295" stop-color="#FFC82A"/>
<stop offset="0.502" stop-color="#FFA930"/>
<stop offset="0.732" stop-color="#FF7E37"/>
<stop offset="0.792" stop-color="#FF7139"/>
</radialGradient>
<radialGradient id="paint13_radial_1036_1147" cx="0" cy="0" r="1" gradientUnits="userSpaceOnUse" gradientTransform="translate(88.2679 58.2424) scale(49.3568 49.2161)">
<stop offset="0.113" stop-color="#FFF44F"/>
<stop offset="0.456" stop-color="#FF980E"/>
<stop offset="0.622" stop-color="#FF5634"/>
<stop offset="0.716" stop-color="#FF3647"/>
<stop offset="0.904" stop-color="#E31587"/>
</radialGradient>
<radialGradient id="paint14_radial_1036_1147" cx="0" cy="0" r="1" gradientTransform="matrix(3.7958 35.8672 -23.6072 2.47764 84.1655 60.9708)" gradientUnits="userSpaceOnUse">
<stop stop-color="#FFF44F"/>
<stop offset="0.06" stop-color="#FFE847"/>
<stop offset="0.168" stop-color="#FFC830"/>
<stop offset="0.304" stop-color="#FF980E"/>
<stop offset="0.356" stop-color="#FF8B16"/>
<stop offset="0.455" stop-color="#FF672A"/>
<stop offset="0.57" stop-color="#FF3647"/>
<stop offset="0.737" stop-color="#E31587"/>
</radialGradient>
<radialGradient id="paint15_radial_1036_1147" cx="0" cy="0" r="1" gradientUnits="userSpaceOnUse" gradientTransform="translate(79.074 69.9106) scale(30.8092 30.7215)">
<stop offset="0.137" stop-color="#FFF44F"/>
<stop offset="0.48" stop-color="#FF980E"/>
<stop offset="0.592" stop-color="#FF5634"/>
<stop offset="0.655" stop-color="#FF3647"/>
<stop offset="0.904" stop-color="#E31587"/>
</radialGradient>
<radialGradient id="paint16_radial_1036_1147" cx="0" cy="0" r="1" gradientUnits="userSpaceOnUse" gradientTransform="translate(87.0146 71.5774) scale(33.7223 33.6261)">
<stop offset="0.094" stop-color="#FFF44F"/>
<stop offset="0.231" stop-color="#FFE141"/>
<stop offset="0.509" stop-color="#FFAF1E"/>
<stop offset="0.626" stop-color="#FF980E"/>
</radialGradient>
<linearGradient id="paint17_linear_1036_1147" x1="92.7443" y1="68.2673" x2="69.9324" y2="91.1484" gradientUnits="userSpaceOnUse">
<stop offset="0.167" stop-color="#FFF44F" stop-opacity="0.8"/>
<stop offset="0.266" stop-color="#FFF44F" stop-opacity="0.634"/>
<stop offset="0.489" stop-color="#FFF44F" stop-opacity="0.217"/>
<stop offset="0.6" stop-color="#FFF44F" stop-opacity="0"/>
</linearGradient>
<linearGradient id="paint18_linear_1036_1147" x1="144.679" y1="71.8568" x2="144.644" y2="96.4999" gradientUnits="userSpaceOnUse">
<stop stop-color="#AFCCFB"/>
<stop offset="1" stop-color="#8BB5F8"/>
</linearGradient>
<linearGradient id="paint19_linear_1036_1147" x1="134.017" y1="63.9375" x2="135.367" y2="85.9853" gradientUnits="userSpaceOnUse">
<stop stop-color="#1972E7"/>
<stop offset="1" stop-color="#1969D5"/>
</linearGradient>
<linearGradient id="paint20_linear_1036_1147" x1="131.736" y1="71.8926" x2="131.736" y2="96.4999" gradientUnits="userSpaceOnUse">
<stop stop-color="#659CF6"/>
<stop offset="1" stop-color="#4285F4"/>
</linearGradient>
<linearGradient id="paint21_linear_1036_1147" x1="136.339" y1="73.4541" x2="136.406" y2="86.7589" gradientUnits="userSpaceOnUse">
<stop stop-color="#3680F0"/>
<stop offset="1" stop-color="#2678EC"/>
</linearGradient>
<linearGradient id="paint22_linear_1036_1147" x1="181.271" y1="61.25" x2="181.271" y2="98.7421" gradientUnits="userSpaceOnUse">
<stop stop-color="#16B0ED" stop-opacity="0.8"/>
<stop offset="1" stop-color="#0F59B2" stop-opacity="0.837"/>
</linearGradient>
<linearGradient id="paint23_linear_1036_1147" x1="204.211" y1="61.2544" x2="204.211" y2="98.7421" gradientUnits="userSpaceOnUse">
<stop stop-color="#7DB643"/>
<stop offset="1" stop-color="#367533"/>
</linearGradient>
<linearGradient id="paint24_linear_1036_1147" x1="192.778" y1="61.2563" x2="192.778" y2="98.752" gradientUnits="userSpaceOnUse">
<stop stop-color="#88C649" stop-opacity="0.8"/>
<stop offset="1" stop-color="#439240" stop-opacity="0.84"/>
</linearGradient>
<clipPath id="clip0_1036_1147">
<rect width="273" height="104" fill="white"/>
</clipPath>
<clipPath id="clip1_1036_1147">
<rect width="48.2" height="48" fill="white"/>
</clipPath>
<clipPath id="clip2_1036_1147">
<rect width="48.2" height="48" fill="white" transform="translate(56.2002)"/>
</clipPath>
<clipPath id="clip3_1036_1147">
<rect width="47.8849" height="47.8849" fill="white" transform="translate(0 56)"/>
</clipPath>
<clipPath id="clip4_1036_1147">
<rect width="48" height="48" fill="white" transform="translate(224.8 56)"/>
</clipPath>
<clipPath id="clip5_1036_1147">
<rect width="48" height="48" fill="white" transform="translate(224.8 56)"/>
</clipPath>
<clipPath id="clip6_1036_1147">
<rect width="48.2" height="48" fill="white" transform="translate(168.6)"/>
</clipPath>
<clipPath id="clip7_1036_1147">
<rect width="48.2" height="48" fill="white" transform="translate(224.8)"/>
</clipPath>
<clipPath id="clip8_1036_1147">
<rect width="48.2" height="48" fill="white" transform="translate(56.2002 56)"/>
</clipPath>
<clipPath id="clip9_1036_1147">
<rect width="48.2" height="48" fill="white" transform="translate(112.4 56)"/>
</clipPath>
<clipPath id="clip10_1036_1147">
<rect width="48.2" height="48" fill="white" transform="translate(168.6 56)"/>
</clipPath>
<clipPath id="clip11_1036_1147">
<rect width="48.2" height="48" fill="white" transform="translate(112.4)"/>
</clipPath>
</defs>
</svg>
